<svg id="Layer_1" data-name="Layer 1" xmlns="http://www.w3.org/2000/svg" viewBox="0 0 566.93 172.93"><defs><style>.cls-1{fill:#fff;}</style></defs><title>logo_w_eco_WHITe</title><path class="cls-1" d="M411.58,90.65h.6a19.46,19.46,0,0,0,2.31-.14l.87-.08-.41-.71L408.59,78.8l-.94.43,3.82,11.07Zm-25-18.84a8.5,8.5,0,0,0,4.52-5.56c0,.56,0,1.15,0,1.75a34.05,34.05,0,0,0,.76,7.55,9.82,9.82,0,0,0-5.25-3.74m-134.12,15L241.27,71.67l11.17-14.84ZM410.9,68.25c2.74,0,4.39,2,4.39,5.34,0,2.93-1.26,4.82-3.47,5.21l-.72.12.35.65L417,89.72l.19.36.38-.1c8.43-2,12.15-8.38,13-14.44,1.15,9.93,8.16,15.11,15.09,15.11a13.51,13.51,0,0,0,9.94-3.91v2.5h15.51V56h-15V72.6c0,3.48-2.06,5.81-5.09,5.81s-5.09-2.33-5.09-5.81,2-5.71,5.09-5.75l.89,0-.44-.76-6.56-11.16-.17-.27-.32,0c-7.49.61-12.91,6.77-13.84,15.29-1.07-6.69-6-13-15.5-13-4.63,0-7.95,1.08-10.51,3.44,1.52-5.26,6.32-6.74,13.69-8.41,4.27-1,11.43-2.56,11.8-12.21l0-.55H417.91l-.06.43c-.21,1.23-1.55,1.52-4.84,2.15-1.4.27-3.16.59-5.19,1.11-9.91,2.52-15.48,9.52-16.57,20.78-.47-5.53-6.37-9.07-15.3-9.07a38.88,38.88,0,0,0-13.85,2.46V56h-15V72.6c0,3.48-2,5.81-5.09,5.81s-5.09-2.33-5.09-5.81,2.05-5.71,5.09-5.75l.89,0-.45-.76-6.54-11.16-.18-.27-.33,0c-8.23.68-14,8.06-14,17.94a25.11,25.11,0,0,0,.34,4.1c-3.32,1.51-9.15,3.58-11.38,3.58-2.82,0-2.88-1.21-2.88-1.34,0-.74,0-1.48,3-2,5.25-.87,10.62-2.76,10.62-10.26,0-5.82-4-12-15.17-12a27.94,27.94,0,0,0-12.8,3.08l-.42.24.21.44,3.61,7.46.24.5.5-.28a12.76,12.76,0,0,1,6.2-2c2.85,0,3.08,1.45,3.08,1.9,0,1.41-1.49,1.72-3.95,2.06l-1,.15c-4.54.74-7.36,2.73-8.56,6.06,0-.52,0-1.07,0-1.61,0-11.8-7.67-18-15.26-18-2.06,0-6.9.41-10.31,4V56H235.13l-.15.27-6.44,11.41V56h-26l-.12.34L198,69.18,191.69,56.3l-.14-.29h-18l.47.78L190.55,85l-8.2,16.56-.37.74h16.11l.13-.3,14.36-33.16V89.24h16V76.42L235.71,89l.16.25h16.57v13.08h15.13V73.77a8.27,8.27,0,0,1-.07-1.17c0-3.44,2-5.75,5.09-5.75s5.08,2.36,5.08,5.75-2,5.79-5,5.81l-.93,0,.5.79,7,11.09.18.28.32,0c6.26-.72,11-5.47,12.76-12.16v.07c0,3.66,1.56,12.18,16.1,12.18a32.87,32.87,0,0,0,17.18-5.13,14.36,14.36,0,0,0,10.92,5.13,13.55,13.55,0,0,0,9.95-3.92v2.51H362.1V66.51a31.62,31.62,0,0,1,11.73-2c2.83,0,4.28.73,4.28,2.14,0,1-1,1.49-3,1.49h-6.7v8.5h6c2.46,0,3.7.51,3.7,1.47s-1.13,2.16-3.62,2.16c-1.58,0-4.87-.4-9.14-3l-.78-.49v12l.33.13A32.9,32.9,0,0,0,376,90.65c12.68,0,17.18-5.73,17.18-10.64V80a17,17,0,0,0,12.71,10.13l.63.14V73.59c0-3.33,1.63-5.34,4.35-5.34M551.39,88.42,539,71.67l11.14-14.84.62-.82H532.85l-.15.27-6.42,11.41V56h-16V89.24h16V76.42L533.44,89l.15.25H552Zm-96.68-20,.93-.42-4-12-.07-.22-.22-.1a13.47,13.47,0,0,0-3.41-.9l-1-.13.52.9ZM97.23,96.14c-.46-.26-1.71-1.23-1.71-4,0-2.53,2.73-5.27,5.91-8.43,4.47-4.47,9.55-9.54,9.55-16.36a38.16,38.16,0,0,0-2.44-12.74l40.83,19.66ZM98,41l-1.74-.84,1.07,1.6c.06.1,6.48,9.82,6.48,18.61,0,8.13-4.44,12.53-8.73,16.76-4.1,4-8.34,8.23-8.34,15.53a20.64,20.64,0,0,0,5,13.35l.24.25.34-.14,72.7-31,1-.43-1-.5ZM50,78.73c0-6.34,10.74-11.46,14.86-13.18a25.26,25.26,0,0,0-4.1,13c0,5.9,3.08,10.79,4.82,13.05C61.25,90.27,50,85.92,50,78.73m39.7-5.45c3.9-5.46,7.94-11.13,7.94-16.07,0-8-7.81-16.65-8.14-17l-.25-.28-.33.15L8.69,73.81l-1.15.48,1.16.47L80.22,103.5l.56-.84c-.13-.13-12.18-12.18-12.18-22C68.6,72.76,73,69,77.23,65.32c2.81-2.43,5.71-4.93,7.2-8.57a18.28,18.28,0,0,0,1.15-7.26,9.94,9.94,0,0,1,3.25,7.72c0,3.4-3,7.67-6.18,12.2C79,74.54,75.32,79.85,75.32,84.76c0,9.16,11.19,21.61,11.67,22.15l.85-.57c0-.12-5.32-10.9-5.32-19.08,0-3.92,3.48-8.8,7.15-14m256-4.84.94-.42-4-12-.06-.22-.22-.1a13.94,13.94,0,0,0-3.43-.9l-1-.13.52.9Zm-75.48,9.83-.95.44,3.73,11L273,90l.26.08a14.26,14.26,0,0,0,3.17.58l1,.07-.5-.84Zm217.51,11h.53V77.6h5V89.24h16V56h-16V66.29h-5V56h-16V89.24h15.45Z"/><path class="cls-1" d="M492.82,97.19a10.51,10.51,0,0,1-3.83,3.75c-4.22,2.34-6.95,1.7-10.32,5.06-1.75,1.73-2.38,4.18-2.79,6.54-.11.64-.19,1.27-.27,1.9,0-.13.09-.27.13-.41a10.14,10.14,0,0,1,.46-1.09,6.51,6.51,0,0,1,.63-1.07,6.85,6.85,0,0,1,1.9-1.85,9.5,9.5,0,0,1,2.43-1.1c.84-.26,1.69-.43,2.49-.61a23.26,23.26,0,0,0,2.29-.56,11.79,11.79,0,0,0,2-.84c.28-.2.57-.37.82-.57l.35-.3c.13-.11.23-.22.35-.31a10.14,10.14,0,0,0,1.07-1.29,1.76,1.76,0,0,1,.21-.29c.05-.1.12-.19.17-.29s.22-.36.32-.51c.33-.66.53-1,.53-1s0,.11-.07.29-.12.48-.22.84l-.22.58c0,.1-.08.22-.12.33s-.11.22-.17.35a6.76,6.76,0,0,1-.94,1.52,7.83,7.83,0,0,1-1.53,1.51,10,10,0,0,1-2.13,1.13,19.34,19.34,0,0,1-2.39.71c-.81.19-1.62.38-2.39.62a8.66,8.66,0,0,0-2.13.91,6.12,6.12,0,0,0-1.65,1.47,8.64,8.64,0,0,0-.61.88c-.18.31-.34.63-.49.94s-.27.62-.38.94-.23.61-.32.9-.17.59-.24.86-.15.53-.22.78c-.09.49-.15.91-.21,1.28,0,.15-.07.6-.07.64l.46.38a7.63,7.63,0,0,1,2.57-4.51c2.29-1.7,5.15-1.41,7.81-2.06a10,10,0,0,0,6.31-4.45c1.79-2.91,1.72-6.62,1-9.85a16.59,16.59,0,0,0-.59-2.12"/><polygon class="cls-1" points="514.23 131.81 521.41 131.81 521.41 126.2 524.34 126.2 524.34 131.81 531.53 131.81 531.53 116.31 524.34 116.31 524.34 121.26 521.41 121.26 521.41 116.31 514.23 116.31 514.23 131.81"/><polygon class="cls-1" points="532.56 131.82 539.75 131.82 539.75 124.95 543.67 131.82 551.88 131.82 545.81 123.6 551.29 116.32 543.3 116.32 539.75 122.66 539.75 116.32 532.56 116.32 532.56 131.82"/><path class="cls-1" d="M485,132.48l-1.84-5.32,3.07,5.26a11.27,11.27,0,0,1-1.23.06"/><path class="cls-1" d="M505.76,121.91l-3.52-6.21a6.09,6.09,0,0,1,1.58.42Z"/><path class="cls-1" d="M503.77,121a3.05,3.05,0,1,0,2.7,3v-7.73h6.74v15.5h-7v-1.6a6.24,6.24,0,0,1-5,2.27c-3.56,0-7.1-2.95-7.1-8.44,0-4.54,2.6-8.06,6.51-8.38Z"/><path class="cls-1" d="M486.47,116.77c-2.32,0-4.12.54-5.49,2.2a9.22,9.22,0,0,0-5.26-1.87,17.62,17.62,0,0,0-.58,4.73c0,2.49.37,9,7,10.39v-7.7c0-1.69.86-2.82,2.34-2.82s2.38,1.13,2.38,2.82-.68,2.55-1.89,2.76l2.68,4.88a7.9,7.9,0,0,0,6.18-8c0-3.41-2.15-7.34-7.32-7.34"/><polygon class="cls-1" points="425.5 131.5 432.74 131.5 432.74 124.6 436.67 131.5 444.93 131.5 438.84 123.23 444.35 115.92 436.32 115.92 432.74 122.28 432.74 115.92 425.5 115.92 425.5 131.5"/><path class="cls-1" d="M419,126.8l2.65,4.4a8.94,8.94,0,0,0,1.13-.69L419,126.8Z"/><path class="cls-1" d="M416.86,128.16c-1.8,0-2.55-1.56-2.52-3h11.55c.1-3.36-1-10.06-9.17-10.06-5.62,0-9.15,3.49-9.15,8.55,0,4.48,2.62,8.61,8.93,8.61a12.57,12.57,0,0,0,4.1-.63l-2.33-3.85a2.43,2.43,0,0,1-1.41.35m0-8.92a2.51,2.51,0,0,1,2.38,2.76h-4.8a2.65,2.65,0,0,1,2.42-2.76"/><path class="cls-1" d="M450.29,125.89l2.14,6.39a13.64,13.64,0,0,0,1.62-.17Z"/><path class="cls-1" d="M451.76,115.13c-6.71,0-9.55,4.09-9.55,8.57a8.07,8.07,0,0,0,7.09,8.38v-8.44h0a2.46,2.46,0,1,1,4.91.06,2.47,2.47,0,0,1-2.3,2.64l3.33,5.5a8,8,0,0,0,6.07-8.14c0-4.48-2.86-8.57-9.55-8.57"/><path class="cls-1" d="M471.4,124a3.25,3.25,0,1,1-3.25-3.25A3.25,3.25,0,0,1,471.4,124"/></svg>